<?xml version="1.0" encoding="UTF-8"?>
<svg width="18px" height="18px" viewBox="0 0 18 18" version="1.1" xmlns="http://www.w3.org/2000/svg" xmlns:xlink="http://www.w3.org/1999/xlink">
    <title>编组 5</title>
    <g id="页面-1" stroke="none" stroke-width="1"  fill-rule="evenodd" stroke-linecap="round">
        <g id="标准" transform="translate(-512.000000, -19.000000)" >
            <g id="编组-4" transform="translate(512.000000, 19.000000)">
                <g id="编组-5" transform="translate(1.000000, 1.000000)">
                    <path d="M14.5996633,8.94280904 L14.5996633,13.6568542 C14.5996633,14.6982524 13.7554433,15.5424723 12.7140452,15.5424723 L11.8284271,15.5424723 C11.2761424,15.5424723 10.8284271,15.0947571 10.8284271,14.5424723 L10.8284271,8.94280904 L10.8284271,8.94280904 L5.17157288,8.91556023 L5.17157288,14.5424723 C5.17157288,15.0947571 4.72385763,15.5424723 4.17157288,15.5424723 L3.28595479,15.5424723 C2.24455668,15.5424723 1.40033671,14.6982524 1.40033671,13.6568542 L1.40033671,8.94280904 L1.40033671,8.94280904" id="路径" stroke-linejoin="round"></path>
                    <path d="M2.34314575,13.6568542 L2.34314575,3.34314575 C2.34314575,2.790861 2.790861,2.34314575 3.34314575,2.34314575 L13.6568542,2.34314575 L13.6568542,2.34314575" id="路径" transform="translate(8.000000, 8.000000) rotate(45.000000) translate(-8.000000, -8.000000) "></path>
                </g>
            </g>
        </g>
    </g>
</svg>