<?xml version="1.0" standalone="no"?><!DOCTYPE svg PUBLIC "-//W3C//DTD SVG 1.1//EN" "http://www.w3.org/Graphics/SVG/1.1/DTD/svg11.dtd"><svg t="1659186261341" class="icon" viewBox="0 0 1026 1024" version="1.1" xmlns="http://www.w3.org/2000/svg" p-id="36525" xmlns:xlink="http://www.w3.org/1999/xlink" width="200.390625" height="200"><defs><style type="text/css"></style></defs><path d="M1021.155556 523.377778l-122.311112 398.222222c-11.377778 36.977778-22.755556 102.4-102.4 102.4H119.466667C54.044444 1024 0 969.955556 0 904.533333V512c0-96.711111 56.888889-113.777778 91.022222-116.622222h71.111111c270.222222-2.844444 310.044444-201.955556 310.044445-241.777778v-17.066667c0-76.8 62.577778-136.533333 139.377778-136.533333 79.644444 2.844444 142.222222 65.422222 147.911111 142.222222v244.622222l147.911111 2.844445c65.422222 0 119.466667 54.044444 119.466666 119.466667-2.844444 5.688889-2.844444 11.377778-5.688888 14.222222zM748.088889 426.666667c-22.755556 0-31.288889-34.133333-31.288889-59.733334V122.311111c0-34.133333-62.577778-82.488889-96.711111-82.488889s-105.244444 28.444444-105.244445 65.422222v42.666667c-5.688889 82.488889-54.044444 233.244444-267.377777 275.911111v560.355556h551.822222c22.755556 0 54.044444-59.733333 62.577778-82.488889l122.311111-395.377778c2.844444-34.133333-51.2-79.644444-82.488889-79.644444h-153.6z m-631.466667 5.688889c-25.6 0-73.955556 5.688889-73.955555 79.644444v406.755556c0 22.755556 39.822222 62.577778 62.577777 62.577777h99.555556V429.511111c-19.911111 2.844444-73.955556 2.844444-88.177778 2.844445z m725.333334 91.022222c0-2.844444 2.844444-8.533333 8.533333-8.533334 2.844444-2.844444 8.533333-2.844444 11.377778 0 2.844444 0 8.533333 2.844444 8.533333 8.533334s2.844444 8.533333 0 11.377778l-54.044444 167.822222c0 2.844444-2.844444 8.533333-8.533334 8.533333-2.844444 2.844444-8.533333 2.844444-11.377778 0-2.844444 0-8.533333-2.844444-8.533333-8.533333-2.844444-2.844444-2.844444-8.533333 0-11.377778l54.044445-167.822222z m-76.8 233.244444c0-2.844444 2.844444-5.688889 8.533333-8.533333 2.844444-2.844444 8.533333-2.844444 11.377778 0 2.844444 0 8.533333 2.844444 8.533333 8.533333s2.844444 8.533333 0 11.377778l-14.222222 45.511111c0 2.844444-2.844444 8.533333-8.533334 8.533333s-8.533333 2.844444-11.377777 0c-2.844444 0-8.533333-2.844444-8.533334-8.533333-2.844444-2.844444-2.844444-8.533333 0-11.377778l14.222223-45.511111z" fill="#8a8a8a" p-id="36526"></path></svg>