<?xml version="1.0" standalone="no"?><!DOCTYPE svg PUBLIC "-//W3C//DTD SVG 1.1//EN" "http://www.w3.org/Graphics/SVG/1.1/DTD/svg11.dtd"><svg class="icon" width="200px" height="200.00px" viewBox="0 0 1024 1024" version="1.1" xmlns="http://www.w3.org/2000/svg"><path d="M335.872 323.584h204.8c260.096 6.144 251.904 243.712 251.904 243.712 0 135.168-114.688 251.904-249.856 251.904l-22.528 4.096-178.176 114.688 20.48-122.88h-28.672c-135.168 0-245.76-110.592-245.76-245.76 2.048-135.168 112.64-245.76 247.808-245.76z" fill="#77B9FF" /><path d="M294.912 323.584h204.8c135.168 0 245.76 110.592 245.76 245.76V593.92c0 122.88-98.304 221.184-221.184 221.184h-10.24l-169.984 141.312-20.48-141.312h-28.672c-135.168 0-245.76-110.592-245.76-245.76s110.592-245.76 245.76-245.76z" fill="#AED6FF" /><path d="M315.392 1003.52c-4.096 0-8.192-2.048-10.24-4.096-6.144-4.096-10.24-12.288-10.24-20.48l20.48-124.928c-149.504-10.24-266.24-135.168-266.24-286.72 0-157.696 129.024-286.72 286.72-286.72h204.8c157.696 0 286.72 129.024 286.72 286.72s-129.024 286.72-286.72 286.72h-6.144l-206.848 143.36c-4.096 4.096-8.192 6.144-12.288 6.144z m20.48-679.936c-135.168 0-245.76 110.592-245.76 245.76s110.592 245.76 245.76 245.76h4.096c6.144 0 12.288 2.048 16.384 8.192 4.096 4.096 6.144 10.24 4.096 16.384l-16.384 100.352 172.032-118.784c4.096-2.048 8.192-4.096 12.288-4.096h12.288c135.168 0 245.76-110.592 245.76-245.76s-110.592-245.76-245.76-245.76l-176.128-4.096c0 2.048-28.672 2.048-28.672 2.048z" fill="#1C2754" /><path d="M884.92032 226.26304l53.248-2.048-96.256-147.456-94.208 143.36h45.056v53.248c0 59.392-75.776 145.408-159.744 143.36 251.904 51.2 253.952-63.488 253.952-143.36-2.048-14.336 0-26.624-2.048-47.104z" fill="#419EFF" /><path d="M729.27232 465.87904c-28.672 0-59.392-2.048-92.16-8.192-10.24-2.048-18.432-10.24-16.384-22.528l2.048-40.96c0-10.24 10.24-18.432 20.48-18.432 77.824-2.048 114.688-53.248 114.688-102.4v-18.432l-45.056 6.144c-8.192 2.048-16.384-2.048-20.48-10.24-4.096-6.144-4.096-16.384 0-22.528l133.12-200.704c8.192-12.288 26.624-12.288 34.816 0l133.12 200.704c4.096 6.144 4.096 14.336 0 20.48s-10.24 10.24-18.432 10.24h-49.152v12.288c0 51.2-6.144 104.448-49.152 145.408-32.768 32.768-81.92 49.152-147.456 49.152z m-67.584-45.056c92.16 12.288 153.6 2.048 188.416-30.72 26.624-24.576 34.816-55.296 34.816-114.688 0-8.192 0-18.432-2.048-30.72 0-6.144-4.096-22.528-4.096-22.528h55.296l-94.208-143.36-90.112 141.312h47.104v53.248c0 75.776-55.296 133.12-135.168 141.312v6.144z" fill="#1C2754" /><path d="M294.912 569.344m-61.44 0a61.44 61.44 0 1 0 122.88 0 61.44 61.44 0 1 0-122.88 0Z" fill="#1C2754" /><path d="M561.152 569.344m-61.44 0a61.44 61.44 0 1 0 122.88 0 61.44 61.44 0 1 0-122.88 0Z" fill="#1C2754" /></svg>