<?xml version="1.0" encoding="UTF-8"?>
<svg width="28px" height="28px" viewBox="0 0 28 28" version="1.1" xmlns="http://www.w3.org/2000/svg" xmlns:xlink="http://www.w3.org/1999/xlink">
    <title>编组 36</title>
    <g id="页面-1" stroke="none" stroke-width="1" fill="none" fill-rule="evenodd">
        <g id="标准" transform="translate(-1472.000000, -14.000000)">
            <g id="编组-36" transform="translate(1472.000000, 14.000000)">
                <circle id="椭圆形备份-2" fill="#FFFFFF" cx="14" cy="14" r="14"></circle>
                <g id="编组" transform="translate(4.000000, 4.000000)" fill-rule="nonzero">
                    <path d="M19.4928087,10.2679436 C19.4928087,10.2679436 19.3804453,7.44087955 19.0827686,5.42490665 C18.9212364,4.33095261 18.6402102,2.92936838 18.23969,1.22015396 C18.1769238,0.951239274 17.9078586,0.784420865 17.6390137,0.847484781 C17.504686,0.878994531 17.3893493,0.964611136 17.3211981,1.08458316 L14.7050892,5.62335777 L14.7050892,5.62335777 L19.4928087,10.2679436 Z" id="路径" fill="#3A3938"></path>
                    <path d="M18.794081,9.60517218 C18.794081,9.60517218 18.7301203,7.99543632 18.5607108,6.84760061 C18.3913013,5.6997649 17.9134974,3.75881621 17.9134974,3.75881621 L16.0679712,6.96065551 L18.794081,9.60517218 Z" id="路径" fill="#695968"></path>
                    <path d="M0.524132209,10.2679436 C0.524132209,10.2679436 0.636495644,7.44087955 0.934172314,5.42490665 C1.09570454,4.33095261 1.37673075,2.92936838 1.77725094,1.22015396 C1.84001717,0.951239274 2.10908239,0.784420865 2.37792724,0.847484781 C2.51225499,0.878994531 2.62759163,0.964611136 2.69574281,1.08458316 L5.31185175,5.62335777 L5.31185175,5.62335777 L0.524132209,10.2679436 Z" id="路径" fill="#3A3938"></path>
                    <path d="M1.22285991,9.60517218 C1.22285991,9.60517218 1.28682063,7.99543632 1.45623012,6.84760061 C1.62563961,5.6997649 2.10344351,3.75881621 2.10344351,3.75881621 L3.94896971,6.96065551 L1.22285991,9.60517218 L1.22285991,9.60517218 Z" id="路径" fill="#695968"></path>
                    <path d="M0,12.95948 C0,15.9714844 1.90598917,18.7546913 5,20.2606935 C8.09401075,21.7666957 11.9059893,21.7666957 15,20.2606935 C18.0940108,18.7546913 20,15.9714844 20,12.95948 C20,8.3033247 15.5228475,4.52876504 10,4.52876504 C4.4771525,4.52876504 0,8.3033247 0,12.95948 L0,12.95948 Z" id="路径" fill="#3A3938"></path>
                    <path d="M3.64887291,13.0096114 C3.64887291,13.9943066 4.4471261,14.7925598 5.43182132,14.7925598 C6.41651655,14.7925598 7.21476974,13.9943066 7.21476974,13.0096114 C7.21476974,12.0249162 6.41651655,11.226663 5.43182132,11.226663 C4.4471261,11.226663 3.64887291,12.0249162 3.64887291,13.0096114 L3.64887291,13.0096114 Z" id="路径" fill="#FFFFFF"></path>
                    <path d="M4.19582354,13.0096114 C4.19582354,13.6922341 4.7491986,14.2456092 5.43182132,14.2456092 C6.11444405,14.2456092 6.66781911,13.6922341 6.66781911,13.0096114 C6.66781911,12.3269887 6.11444405,11.7736136 5.43182132,11.7736136 C4.7491986,11.7736136 4.19582354,12.3269887 4.19582354,13.0096114 Z" id="路径" fill="#DEA614"></path>
                    <path d="M5.43182132,12.5345734 C5.43182132,12.7692428 5.62205851,12.95948 5.85672798,12.95948 C6.09139744,12.95948 6.28163463,12.7692428 6.28163463,12.5345734 C6.28163463,12.2999039 6.09139744,12.1096667 5.85672798,12.1096667 C5.62205851,12.1096667 5.43182132,12.2999039 5.43182132,12.5345734 L5.43182132,12.5345734 Z" id="路径" fill="#FFFFFF"></path>
                    <path d="M12.8391647,13.0096114 C12.8391647,13.9943066 13.6374179,14.7925598 14.6221131,14.7925598 C15.6068083,14.7925598 16.4050615,13.9943066 16.4050615,13.0096114 C16.4050615,12.0249162 15.6068083,11.226663 14.6221131,11.226663 C13.6374179,11.226663 12.8391647,12.0249162 12.8391647,13.0096114 L12.8391647,13.0096114 Z" id="路径" fill="#FFFFFF"></path>
                    <path d="M13.3861153,13.0096114 C13.3861153,13.6922341 13.9394904,14.2456092 14.6221131,14.2456092 C15.3047359,14.2456092 15.8581109,13.6922341 15.8581109,13.0096114 C15.8581109,12.3269887 15.3047359,11.7736136 14.6221131,11.7736136 C13.9394904,11.7736136 13.3861153,12.3269887 13.3861153,13.0096114 Z" id="路径" fill="#DEA614"></path>
                    <path d="M14.6947172,12.5345734 C14.6947172,12.7692428 14.8849544,12.95948 15.1196238,12.95948 C15.3542933,12.95948 15.5445305,12.7692428 15.5445305,12.5345734 C15.5445305,12.2999039 15.3542933,12.1096667 15.1196238,12.1096667 C14.8849544,12.1096667 14.6947172,12.2999039 14.6947172,12.5345734 Z" id="路径" fill="#FFFFFF"></path>
                    <path d="M9.04093472,15.5144517 C9.0412806,15.2288757 10.9663255,15.2731296 10.972203,15.5141059 C10.9832665,15.9649426 10.3308671,16.6031669 9.99343106,16.6045536 C9.65772369,16.6062785 9.04058913,16.0081593 9.04093472,15.5144517 L9.04093472,15.5144517 Z" id="路径" fill="#1E100F"></path>
                    <polygon id="路径" fill="#1E100F" points="8.94654958 18.6907067 8.86945097 18.6212142 9.94122528 17.4318905 9.94122528 16.5274513 10.0449454 16.5274513 10.0449454 17.4716498"></polygon>
                    <polygon id="路径" fill="#1E100F" points="11.0534504 18.6910524 9.94087955 17.4716498 9.95470889 16.5264141 10.058429 16.5281427 10.0452911 17.4322362 11.1298576 18.6208685"></polygon>
                </g>
            </g>
        </g>
    </g>
</svg>