<?xml version="1.0" standalone="no"?><!DOCTYPE svg PUBLIC "-//W3C//DTD SVG 1.1//EN" "http://www.w3.org/Graphics/SVG/1.1/DTD/svg11.dtd"><svg t="1659185522410" class="icon" viewBox="0 0 1024 1024" version="1.1" xmlns="http://www.w3.org/2000/svg" p-id="25069" data-spm-anchor-id="a313x.7781069.0.i6" xmlns:xlink="http://www.w3.org/1999/xlink" width="200" height="200"><defs><style type="text/css"></style></defs><path d="M512 830.9375c-206.41359375 0-393.316875-119.7196875-476.13234375-305.00859375L29.65625 512l6.21140625-13.92890625C118.683125 312.7821875 305.58640625 193.0625 512 193.0625s393.316875 119.7196875 476.13234375 305.00859375L994.34375 512l-6.21140625 13.92890625C905.316875 711.2178125 718.41359375 830.9375 512 830.9375zM104.89203125 512C179.68484375 664.735625 337.77546875 762.59234375 512 762.59234375S844.31515625 664.735625 919.10796875 512C844.31515625 359.264375 686.20484375 261.40765625 512 261.40765625S179.68484375 359.264375 104.89203125 512zM512 660.07953125c-81.7621875 0-148.28625-66.425625-148.28625-148.07953125S430.2378125 363.92046875 512 363.92046875 660.28625 430.3559375 660.28625 512 593.7621875 660.07953125 512 660.07953125zM512 432.265625c-44.02125 0-79.8525 35.7721875-79.8525 79.734375s35.82140625 79.734375 79.8525 79.734375 79.8525-35.7721875 79.8525-79.734375-35.83125-79.734375-79.8525-79.734375z" p-id="25070" fill="#8a8a8a"></path></svg>