<?xml version="1.0" standalone="no"?><!DOCTYPE svg PUBLIC "-//W3C//DTD SVG 1.1//EN" "http://www.w3.org/Graphics/SVG/1.1/DTD/svg11.dtd"><svg t="1659186229526" class="icon" viewBox="0 0 1024 1024" version="1.1" xmlns="http://www.w3.org/2000/svg" p-id="33850" xmlns:xlink="http://www.w3.org/1999/xlink" width="200" height="200"><defs><style type="text/css"></style></defs><path d="M389.581123 1002.292104L79.338041 691.597562a79.637485 79.637485 0 0 1 2.79905-112.59404l418.864277-418.864278a83.790914 83.790914 0 0 1 54.17516-24.649697l330.739351-20.405977a76.296683 76.296683 0 0 1 58.599464 21.850647 76.386975 76.386975 0 0 1 21.760356 58.689757l-20.586561 330.649059a83.339454 83.339454 0 0 1-24.649697 54.17516l-418.773986 418.683693a79.908361 79.908361 0 0 1-112.684332 3.160218z m506.898912-817.593454a8.487442 8.487442 0 0 0-6.681603-2.167006l-330.649059 20.405977a16.7943 16.7943 0 0 0-10.383572 4.966056L129.630647 626.767954a12.731163 12.731163 0 0 0-2.79905 17.065176l310.243082 310.333373a13.002038 13.002038 0 0 0 17.155468-2.799049L873.275008 532.774052a15.89138 15.89138 0 0 0 4.966056-10.383572l20.405977-330.919935a8.39715 8.39715 0 0 0-2.167006-6.771895z" p-id="33851" fill="#8a8a8a"></path><path d="M335.225379 200.680322a33.769183 33.769183 0 0 1 0-47.764432L460.91175 27.139227a33.317723 33.317723 0 0 1 22.031231-9.841821L797.068616 0.051647a33.769183 33.769183 0 1 1 3.70197 67.448074L499.827573 84.113437 382.989812 200.680322a33.769183 33.769183 0 0 1-47.764433 0z" p-id="33852" fill="#8a8a8a"></path><path d="M286.467735 249.437966m-35.936189 0a35.936189 35.936189 0 1 0 71.872378 0 35.936189 35.936189 0 1 0-71.872378 0Z" p-id="33853" fill="#8a8a8a"></path><path d="M671.382246 410.067315a92.910399 92.910399 0 1 1 131.465054 0 93.000691 93.000691 0 0 1-131.465054 0z m101.307549-101.488133a50.653774 50.653774 0 1 0 0 71.691795 50.744066 50.744066 0 0 0 0-71.691795z" p-id="33854" fill="#8a8a8a"></path><path d="M343.132177 501.150884m21.133039 21.133039l194.66657 194.66657q21.133039 21.133039 0 42.266077l-0.063846 0.063847q-21.133039 21.133039-42.266077 0l-194.66657-194.666571q-21.133039-21.133039 0-42.266077l0.063846-0.063846q21.133039-21.133039 42.266077 0Z" p-id="33855" fill="#8a8a8a"></path><path d="M259.08142 585.187323m21.133038 21.133039l194.666571 194.66657q21.133039 21.133039 0 42.266078l-0.063846 0.063846q-21.133039 21.133039-42.266078 0l-194.66657-194.666571q-21.133039-21.133039 0-42.266077l0.063846-0.063846q21.133039-21.133039 42.266077 0Z" p-id="33856" fill="#8a8a8a"></path></svg>