<?xml version="1.0" standalone="no"?><!DOCTYPE svg PUBLIC "-//W3C//DTD SVG 1.1//EN" "http://www.w3.org/Graphics/SVG/1.1/DTD/svg11.dtd"><svg t="1661937286366" class="icon" viewBox="0 0 1024 1024" version="1.1" xmlns="http://www.w3.org/2000/svg" p-id="3233" xmlns:xlink="http://www.w3.org/1999/xlink" width="200" height="200"><path d="M968.463059 241.935059h-235.941647v493.628235l111.977412-115.501176 96.406588 99.388235c24.545882 25.298824 66.499765 7.408941 66.499764-28.400941V282.081882c0-22.166588-17.438118-40.146824-38.942117-40.146823" fill="#31EC7C" p-id="3234"></path><path d="M247.085176 356.111059l199.137883 205.281882 28.461176 29.334588 170.676706-175.977411-101.165176-104.267294c-24.545882-25.298824-7.168-68.547765 27.527529-68.547765h160.768V72.914824c0-40.267294-31.683765-72.884706-70.716235-72.884706H85.775059C46.712471 0 15.058824 32.617412 15.058824 72.884706v522.420706l32.948705-33.942588 199.107765-205.281883zM474.684235 1001.321412L275.576471 796.039529l-28.461177-29.334588L37.647059 982.678588c12.649412 12.137412 29.515294 19.606588 48.188235 19.606588h575.969882c39.062588 0 70.776471-32.647529 70.776471-72.884705v-193.867295l-58.729412 60.536471-199.137882 205.251765z" fill="#F9D11F" p-id="3235"></path><path d="M571.753412 241.935059c-34.695529 0-52.103529 43.248941-27.557647 68.547765l101.165176 104.267294-170.676706 175.977411-28.431059-29.334588-199.137882-205.281882-199.137882 205.281882L15.058824 595.335529v334.034824c0 21.082353 8.734118 39.966118 22.558117 53.308235l209.498353-215.943529 28.461177 29.274353 199.077647 205.312 199.168-205.312 58.699294-60.476236V241.935059h-160.768z" fill="#FF7E50" p-id="3236"></path></svg>